Coordinates
version=1
nRows=4
nColumns=63
inDegrees=yes

Units are S.I. units (second, meters, Newtons, ...)
If the header above contains a line with 'inDegrees', this indicates whether rotational values are in degrees (yes) or radians (no).

endheader
time	pelvis_tilt	pelvis_list	pelvis_rotation	pelvis_tx	pelvis_ty	pelvis_tz	hip_flexion_r	hip_adduction_r	hip_rotation_r	knee_angle_r	knee_angle_r_beta	ankle_angle_r	subtalar_angle_r	mtp_angle_r	hip_flexion_l	hip_adduction_l	hip_rotation_l	knee_angle_l	knee_angle_l_beta	ankle_angle_l	subtalar_angle_l	mtp_angle_l	L5_S1_Flex_Ext	L5_S1_Lat_Bending	L5_S1_axial_rotation	L4_L5_Flex_Ext	L4_L5_Lat_Bending	L4_L5_axial_rotation	L3_L4_Flex_Ext	L3_L4_Lat_Bending	L3_L4_axial_rotation	L2_L3_Flex_Ext	L2_L3_Lat_Bending	L2_L3_axial_rotation	L1_L2_Flex_Ext	L1_L2_Lat_Bending	L1_L2_axial_rotation	L1_T12_Flex_Ext	L1_T12_Lat_Bending	L1_T12_axial_rotation	Abs_r3	Abs_r2	Abs_r1	Abs_t1	Abs_t2	neck_flexion	neck_bending	neck_rotation	arm_flex_r	arm_add_r	arm_rot_r	elbow_flex_r	pro_sup_r	wrist_flex_r	wrist_dev_r	arm_flex_l	arm_add_l	arm_rot_l	elbow_flex_l	pro_sup_l	wrist_flex_l	wrist_dev_l
      4.35000000	     -0.76939062	      3.19809567	     66.67641860	      0.24928713	      0.74500786	      0.66197612	      3.97474463	     -2.54940609	     24.25151567	     15.22868342	      0.26579067	     15.27146404	     -3.32807704	      0.00000000	     -4.21047030	      2.54437363	    -29.40147604	      9.65990336	      0.16859712	     21.81714363	     -5.69174832	      0.00000000	     -0.83850713	     -0.31472526	      0.85596358	     -1.55719159	     -0.41858460	      0.90946130	     -1.37758336	     -0.76522300	      0.90946130	     -0.95832980	     -0.76522300	      0.74896813	     -0.77863772	     -0.64178775	      0.69547041	     -0.47912297	     -0.48750943	      0.64197268	     -5.98937258	     -3.56023510	      4.76061262	      0.00000000	      0.00000000	    -11.52921942	     -8.97248463	    -15.88275259	      6.71161984	     -7.54864679	    133.13699002	      0.73803920	      2.10839390	     -4.10895191	    -11.07449133	     77.58443632	    -32.02289583	    -20.94777616	    149.89211650	     66.27197402	     12.30898566	    -15.46527229
      4.36666667	     -0.63659748	      2.86996599	     66.36889187	      0.24855249	      0.74467491	      0.66280183	      4.50049547	     -2.41060322	     23.88187998	     15.35830092	      0.26805292	     15.11060903	     -1.88814455	      0.00000000	     -3.52852076	      2.26636540	    -28.48707580	     10.26044102	      0.17907848	     21.76036332	     -7.34594752	      0.00000000	     -0.86798931	     -0.28989103	      0.55224270	     -1.61194295	     -0.38555507	      0.58675787	     -1.42601964	     -0.70484105	      0.58675787	     -0.99202498	     -0.70484105	      0.48321237	     -0.80601487	     -0.59114579	      0.44869720	     -0.49596909	     -0.44904121	      0.41418203	     -6.19996085	     -3.27930532	      3.07140825	      0.00000000	      0.00000000	    -10.80393327	     -8.42071276	    -12.71225650	      7.10792055	     -7.64839117	    129.83133054	      0.87347417	      2.05740476	     -2.95332798	    -11.61049595	     79.20684382	    -33.29192576	    -21.51897496	    149.87618484	     62.21816650	     15.57819009	     -8.23795467
      4.38333333	     -0.46208769	      2.54516287	     66.06469833	      0.24818275	      0.74427993	      0.66400559	      4.95201848	     -2.09194862	     24.31270167	     15.43505377	      0.26939251	     14.53588264	     -1.78331559	      0.00000000	     -2.88528173	      1.83425193	    -28.43328611	     10.90025040	      0.19024526	     22.06844899	     -7.72658737	      0.00000000	     -0.91234223	     -0.27257309	      0.12929253	     -1.69431076	     -0.36252220	      0.13737331	     -1.49888706	     -0.66273420	      0.13737331	     -1.04271594	     -0.66273420	      0.11313096	     -0.84720100	     -0.55583104	      0.10505018	     -0.52131235	     -0.42221571	      0.09696939	     -6.51676935	     -3.08340127	      0.71908624	      0.00000000	      0.00000000	     -9.47570328	     -7.49412952	     -8.37152289	      8.09714520	     -7.65644695	    129.71535486	      1.07567619	      1.89679498	     -2.31115608	    -11.44649812	     80.71193821	    -35.18464970	    -21.88414696	    149.86310651	     63.40256665	     14.44160696	     -3.01742651
      4.40000000	     -0.15372967	      2.26278166	     65.72519360	      0.24789724	      0.74407568	      0.66556358	      5.28144658	     -1.64960647	     24.88088895	     15.39131641	      0.26862915	     13.98313796	     -1.60963871	      0.00000000	     -2.29417433	      1.25175118	    -28.42506989	     11.64521820	      0.20324740	     22.40740411	     -8.17126133	      0.00000000	     -0.98396750	     -0.24394513	     -0.37717370	     -1.82732605	     -0.32444702	     -0.40074705	     -1.61656021	     -0.59312818	     -0.40074705	     -1.12457646	     -0.59312818	     -0.33002699	     -0.91371222	     -0.49745290	     -0.30645363	     -0.56223903	     -0.37787100	     -0.28288027	     -7.02838148	     -2.75955607	     -2.09772695	      0.00000000	      0.00000000	     -7.71579376	     -6.80281428	     -3.31141152	      9.56229289	     -7.63952439	    129.80518950	      1.50284858	      1.94980311	     -1.59024605	    -11.03319076	     82.09832929	    -37.69181868	    -22.51073681	    149.85284887	     65.11871980	     13.28613381	      2.33703610
